HIERARCHY
ROOT Hips
{
	OFFSET -14.64140 90.27770 -84.91600
	CHANNELS 6 Xposition Yposition Zposition Zrotation Xrotation Yrotation
	JOINT Spine
	{
		OFFSET 0.00000 13.20850 -1.60436
		CHANNELS 3 Zrotation Xrotation Yrotation
		JOINT Spine1
		{
			OFFSET 0.00000 8.61716 0.00000
			CHANNELS 3 Zrotation Xrotation Yrotation
			JOINT Spine2
			{
				OFFSET 0.00000 8.61717 0.00000
				CHANNELS 3 Zrotation Xrotation Yrotation
				JOINT Spine3
				{
					OFFSET 0.00000 8.61717 0.00000
					CHANNELS 3 Zrotation Xrotation Yrotation
					JOINT Neck
					{
						OFFSET 0.00000 11.07920 1.10792
						CHANNELS 3 Zrotation Xrotation Yrotation
						JOINT Neck1
						{
							OFFSET 0.00000 7.08032 0.00000
							CHANNELS 3 Zrotation Xrotation Yrotation
							JOINT Head
							{
								OFFSET 0.00000 7.08031 0.00000
								CHANNELS 3 Zrotation Xrotation Yrotation
								End site
								{
									OFFSET 0.00000 0.00000 0.00000
								}
							}
						}
					}
					JOINT RightShoulder
					{
						OFFSET -0.01000 7.91373 5.19711
						CHANNELS 3 Zrotation Xrotation Yrotation
						JOINT RightArm
						{
							OFFSET -18.41580 0.00000 0.00000
							CHANNELS 3 Zrotation Xrotation Yrotation
							JOINT RightForeArm
							{
								OFFSET -29.11090 0.00000 0.00000
								CHANNELS 3 Zrotation Xrotation Yrotation
								JOINT RightHand
								{
									OFFSET -24.65040 0.00000 0.00000
									CHANNELS 3 Zrotation Xrotation Yrotation
									JOINT RightHandThumb1
									{
										OFFSET -5.35114 -0.85590 3.97906
										CHANNELS 3 Zrotation Xrotation Yrotation
										JOINT RightHandThumb2
										{
											OFFSET -4.52789 0.00000 0.00000
											CHANNELS 3 Zrotation Xrotation Yrotation
											JOINT RightHandThumb3
											{
												OFFSET -2.46976 0.00000 0.00000
												CHANNELS 3 Zrotation Xrotation Yrotation
												End site
												{
													OFFSET 0.00000 0.00000 0.00000
												}
											}
										}
									}
									JOINT RightHandIndex1
									{
										OFFSET -14.26970 0.00000 2.88139
										CHANNELS 3 Zrotation Xrotation Yrotation
										JOINT RightHandIndex2
										{
											OFFSET -5.48836 0.00000 0.00000
											CHANNELS 3 Zrotation Xrotation Yrotation
											JOINT RightHandIndex3
											{
												OFFSET -3.01859 0.00000 0.00000
												CHANNELS 3 Zrotation Xrotation Yrotation
												End site
												{
													OFFSET 0.00000 0.00000 0.00000
												}
											}
										}
									}
									JOINT RightHandMiddle1
									{
										OFFSET -14.26970 0.00000 -0.09147
										CHANNELS 3 Zrotation Xrotation Yrotation
										JOINT RightHandMiddle2
										{
											OFFSET -6.17441 0.00000 0.00000
											CHANNELS 3 Zrotation Xrotation Yrotation
											JOINT RightHandMiddle3
											{
												OFFSET -3.56743 0.00000 0.00000
												CHANNELS 3 Zrotation Xrotation Yrotation
												End site
												{
													OFFSET 0.00000 0.00000 0.00000
												}
											}
										}
									}
									JOINT RightHandRing1
									{
										OFFSET -12.69180 0.00000 -3.06433
										CHANNELS 3 Zrotation Xrotation Yrotation
										JOINT RightHandRing2
										{
											OFFSET -5.62556 0.00000 0.00000
											CHANNELS 3 Zrotation Xrotation Yrotation
											JOINT RightHandRing3
											{
												OFFSET -3.56744 0.00000 0.00000
												CHANNELS 3 Zrotation Xrotation Yrotation
												End site
												{
													OFFSET 0.00000 0.00000 0.00000
												}
											}
										}
									}
									JOINT RightHandPinky1
									{
										OFFSET -11.11390 0.00000 -6.03719
										CHANNELS 3 Zrotation Xrotation Yrotation
										JOINT RightHandPinky2
										{
											OFFSET -4.52789 0.00000 0.00000
											CHANNELS 3 Zrotation Xrotation Yrotation
											JOINT RightHandPinky3
											{
												OFFSET -2.46976 0.00000 0.00000
												CHANNELS 3 Zrotation Xrotation Yrotation
												End site
												{
													OFFSET 0.00000 0.00000 0.00000
												}
											}
										}
									}
								}
							}
						}
					}
					JOINT LeftShoulder
					{
						OFFSET 0.01000 7.91373 5.19711
						CHANNELS 3 Zrotation Xrotation Yrotation
						JOINT LeftArm
						{
							OFFSET 18.41580 0.00000 0.00000
							CHANNELS 3 Zrotation Xrotation Yrotation
							JOINT LeftForeArm
							{
								OFFSET 29.11090 0.00000 0.00000
								CHANNELS 3 Zrotation Xrotation Yrotation
								JOINT LeftHand
								{
									OFFSET 24.65040 0.00000 0.00000
									CHANNELS 3 Zrotation Xrotation Yrotation
									JOINT LeftHandThumb1
									{
										OFFSET 5.35114 -0.85590 3.97906
										CHANNELS 3 Zrotation Xrotation Yrotation
										JOINT LeftHandThumb2
										{
											OFFSET 4.52789 0.00000 0.00000
											CHANNELS 3 Zrotation Xrotation Yrotation
											JOINT LeftHandThumb3
											{
												OFFSET 2.46977 0.00000 0.00000
												CHANNELS 3 Zrotation Xrotation Yrotation
												End site
												{
													OFFSET 0.00000 0.00000 0.00000
												}
											}
										}
									}
									JOINT LeftHandIndex1
									{
										OFFSET 14.26970 0.00000 2.88139
										CHANNELS 3 Zrotation Xrotation Yrotation
										JOINT LeftHandIndex2
										{
											OFFSET 5.48836 0.00000 0.00000
											CHANNELS 3 Zrotation Xrotation Yrotation
											JOINT LeftHandIndex3
											{
												OFFSET 3.01859 0.00000 0.00000
												CHANNELS 3 Zrotation Xrotation Yrotation
												End site
												{
													OFFSET 0.00000 0.00000 0.00000
												}
											}
										}
									}
									JOINT LeftHandMiddle1
									{
										OFFSET 14.26970 0.00000 -0.09147
										CHANNELS 3 Zrotation Xrotation Yrotation
										JOINT LeftHandMiddle2
										{
											OFFSET 6.17440 0.00000 0.00000
											CHANNELS 3 Zrotation Xrotation Yrotation
											JOINT LeftHandMiddle3
											{
												OFFSET 3.56744 0.00000 0.00000
												CHANNELS 3 Zrotation Xrotation Yrotation
												End site
												{
													OFFSET 0.00000 0.00000 0.00000
												}
											}
										}
									}
									JOINT LeftHandRing1
									{
										OFFSET 12.69180 0.00000 -3.06433
										CHANNELS 3 Zrotation Xrotation Yrotation
										JOINT LeftHandRing2
										{
											OFFSET 5.62556 0.00000 0.00000
											CHANNELS 3 Zrotation Xrotation Yrotation
											JOINT LeftHandRing3
											{
												OFFSET 3.56744 0.00000 0.00000
												CHANNELS 3 Zrotation Xrotation Yrotation
												End site
												{
													OFFSET 0.00000 0.00000 0.00000
												}
											}
										}
									}
									JOINT LeftHandPinky1
									{
										OFFSET 11.11390 0.00000 -6.03719
										CHANNELS 3 Zrotation Xrotation Yrotation
										JOINT LeftHandPinky2
										{
											OFFSET 4.52789 0.00000 0.00000
											CHANNELS 3 Zrotation Xrotation Yrotation
											JOINT LeftHandPinky3
											{
												OFFSET 2.46976 0.00000 0.00000
												CHANNELS 3 Zrotation Xrotation Yrotation
												End site
												{
													OFFSET 0.00000 0.00000 0.00000
												}
											}
										}
									}
								}
							}
						}
					}
					JOINT pCube4
					{
						OFFSET 0.00000 10.91090 1.10792
						CHANNELS 3 Zrotation Xrotation Yrotation
						End site
						{
							OFFSET 0.00000 0.00000 0.00000
						}
					}
				}
			}
		}
	}
	JOINT RightUpLeg
	{
		OFFSET -9.98441 0.00000 0.00000
		CHANNELS 3 Zrotation Xrotation Yrotation
		JOINT RightLeg
		{
			OFFSET 0.00000 -42.11790 0.00000
			CHANNELS 3 Zrotation Xrotation Yrotation
			JOINT RightFoot
			{
				OFFSET 0.00000 -45.00020 -0.00001
				CHANNELS 3 Zrotation Xrotation Yrotation
				JOINT RightForeFoot
				{
					OFFSET 0.00000 -3.74820 0.00000
					CHANNELS 3 Zrotation Xrotation Yrotation
					JOINT RightToeBase
					{
						OFFSET 0.00000 0.06325 14.43120
						CHANNELS 3 Zrotation Xrotation Yrotation
						End site
						{
							OFFSET 0.00000 0.00000 0.00000
						}
					}
				}
			}
		}
	}
	JOINT LeftUpLeg
	{
		OFFSET 9.98441 0.00000 0.00000
		CHANNELS 3 Zrotation Xrotation Yrotation
		JOINT LeftLeg
		{
			OFFSET 0.00000 -42.11800 0.00000
			CHANNELS 3 Zrotation Xrotation Yrotation
			JOINT LeftFoot
			{
				OFFSET 0.00000 -45.00070 0.00000
				CHANNELS 3 Zrotation Xrotation Yrotation
				JOINT LeftForeFoot
				{
					OFFSET 0.00000 -3.74824 0.00000
					CHANNELS 3 Zrotation Xrotation Yrotation
					JOINT LeftToeBase
					{
						OFFSET 0.00000 0.06325 14.43110
						CHANNELS 3 Zrotation Xrotation Yrotation
						End site
						{
							OFFSET 0.00000 0.00000 0.00000
						}
					}
				}
			}
		}
	}
}
MOTION
Frames: 4
Frame Time: 0.050000
0.00028613802532681244 -0.024514213666168076 0.04493366124427978 -0.020901513639442225 0.018077803758969262 -0.03428187740743897 -4.865299837469637 9.292769970692069 -0.3798315208364667 -0.8027907404068964 2.992854029644195 0.40734516233357165 -1.064645290319663 0.4523437762008752 -0.5225290103685812 -1.0997816195348493 0.27911924750762857 -0.9061740475678115 -0.6117910331595035 6.192684019294825 1.0855119935186108 -0.44808260878557665 -2.2099178585011052 -2.429682750168409 -0.5471252073439844 -16.80604667903472 -0.11389711941808735 2.9556327187847544 0.1710012434867744 -7.1044052605700605 52.78456295046904 4.751313548489247 35.68375310567059 6.7018488748510645 17.51499979585847 74.25351234092254 27.66025050471381 -0.11740399687525443 -9.522446367582084 4.569914723805972 -0.1743777469265019 -1.6270590833516407 0.020967568539120122 0.01130398411723743 -56.22493799875725 0.018148860262599906 -0.020439532837564233 -56.24863417785019 -38.800640420621136 0.023316933006096285 0.006082201768069373 -0.024112460030828235 -0.016928199502144994 -0.03423733653959358 0.02579873699151217 -0.010556261150728687 0.032575442231606806 -36.72042951088072 -0.024861986669782465 0.04708641932454263 0.028649612366475924 -0.040933690327392594 0.04706124448764532 0.02877271406955335 0.043638302284646505 0.02356522950938478 -19.80143636949988 -0.04333118467179514 -0.030803016700508955 0.04127000672093305 -0.012492394331270829 0.025483368985015853 -0.049478266328403096 0.0404439851385547 -0.02727295434999937 24.06442466981834 -0.03298683242270107 -0.023161046386933004 28.87391925225464 -0.007318832107290978 -0.01932324754317521 28.876417367683977 0.02457126113839755 0.04814223747564403 -2.2019164475157273 0.07235012645651356 7.051651953667276 -50.75295824453407 19.824656520917852 -29.15636692959781 -24.379092812039215 15.009056199455088 -82.19181114599085 -25.68786463722422 -7.981666157718367 6.275126815490795 -0.4786219583762658 0.054126363022922556 -8.1403578665 0.014447732575840573 -0.008426550443984833 44.53122792119866 -0.01741499905679457 -0.04568761899623503 44.55666668035825 12.434045884141028 0.023015374336851895 -0.004659883161339357 -0.008649443779348022 0.03164001646032763 -0.0013326199889406147 -0.031961536029632635 -0.005171291731125913 0.02009221371153868 11.145227725181131 -0.012887318025232655 -0.0038587948913752427 0.011565122680300858 -0.018579789104523195 0.010146860142637201 0.01917351904374924 0.012172790241644683 -0.015711936836434535 4.728697286424025 -0.02764723996664618 -0.021001780579025107 -0.031068178398768322 -0.007906243829993364 -0.014828940417985785 -0.019988256851517627 -0.04514177317477381 -0.041683646004356575 -5.639057530601792 -0.005607824533361372 -0.01244580336167987 -6.687503188917222 0.03720416248842993 -0.03270668511987109 -6.681155329850045 -0.038943097384483316 -0.023237160290214928 -0.03162426324670733 -0.009168322411480087 -0.0010086949006042122 8.084208138734297 3.4945201547097686 -19.20175161168247 -0.036717662773215996 10.372466682483841 0.05680286053080938 -5.625049282011005 -15.617048226876403 3.1850914789176312 0.03276086313469101 0.025609359418685387 0.01138154094234713 -0.023595497555238903 4.668264261873372 0.00030301775640407256 12.507787631927028 -8.260174165408745 6.873862586571271 0.008616375299048063 46.347324363566706 -0.019993071443450736 -4.3070744098143665 -14.752021327714905 -3.8173856811886404 0.0016460739881619358 0.008343232068437742 0.03696587173381654 0.0004852182301426682 -10.764715095798476 -0.020117252831930686 
0.03565657884247036 0.03836973822356948 -0.031836221559486545 0.011426962156573267 0.006935104108095139 0.023552747736399825 -4.897184030341932 9.248438439540548 -0.44940731715989285 -0.7806148635563799 2.96132120382443 0.40269005650574946 -0.9926199892072232 0.43527481288972003 -0.6238919582550043 -1.1592605363249595 0.18096086585572885 -0.9740399867365988 -0.7332077748496327 6.103681399754744 1.144884535677152 -0.48092734373484664 -2.137406997940111 -2.1300066814194683 -0.5636182558708501 -16.70025179755105 -0.026186309628624928 3.145708666449958 0.06863511009337156 -7.098333921223176 50.57365767496798 4.23820470670022 33.09099369060815 1.979411026983855 17.168482036231673 71.23862299523023 28.66904936451981 -0.16668058199177627 -8.806295830998517 4.564376258955929 -0.14689319435509945 -1.6349187240767935 0.04448723066628822 -0.013574569863590416 -56.279481619142096 -0.04774323639196288 0.027435997041740264 -56.23894672760509 -38.737189382671446 -0.012848558461048428 0.007627832397623598 -0.022496029785711188 0.04735901922192525 0.01695565750132445 -0.0050853682467635756 0.044859669747686896 -0.037212424319258953 -36.6776631452232 0.0054275749896066025 0.0013913914768460827 -0.035693437118528626 0.010815803417224525 0.04112146836432299 -0.021860088798609314 -0.04679888815563178 -0.02384195162529027 -19.742843664155913 -0.03939217531768181 -0.03314391485231879 -0.012347045818715638 0.04407375602201972 0.006200176593533209 0.0065717315529123105 0.04374930761621913 -0.024227483685722622 24.08390666291968 -0.035658976652882104 0.04564221352049095 28.889062419990452 -0.02354116788683546 0.025232542108482726 28.89807623566739 -0.043217159135913355 0.006710162732114233 -2.16078918755076 0.02530354568595638 7.154756592725228 -49.14761249634134 19.733980856707195 -28.863734875019652 -19.698159791797874 13.781545101835446 -80.8420363863385 -26.39788543137994 -8.477341217093334 6.718808470297647 -0.4817234518623183 0.024300662380190345 -8.142665645383664 -0.013170534678343757 -0.012708041239507759 44.588678900277706 -0.027275854822705847 0.010712833894069957 44.53386442477071 12.481744861482191 -0.00912205651460659 0.03880798513003063 0.04173577309176785 -0.025856519050542672 0.007702926219238292 -0.014280699616357312 -0.017829540847078582 0.0368832926309712 11.094950043036716 -0.02259862845399526 -0.015218569234086597 0.004074540627475055 -0.036990192302897636 -0.03928403214181194 -0.039543258311728634 0.0066998501387898505 0.014125715048778962 4.817593485010356 0.02112733102485845 -0.0016832827068162738 -0.005973625806639997 0.01292187043033424 -0.020569611415096237 0.001012627569930549 0.01319643579323531 0.02781459825294147 -5.568738404468766 -0.02345321170358882 0.03888335750393491 -6.744060670686165 0.01770898004001791 0.04634647149678844 -6.732555164401168 -0.004524762322994291 -0.043989860841646314 0.008980886223359753 0.012216146286975678 0.005910316551556337 8.04387910243307 3.4638839740349097 -19.202167162696956 0.020837858934861696 10.35809438320434 0.010249250263008425 -5.6267657938469275 -15.616925210393333 3.171281967252542 -0.03479491416451365 -0.022103292886899526 -0.036549064042188086 0.03482248449211299 4.682181431894522 -0.022143525273895997 12.480277121379999 -8.227565926621757 6.866393103209766 0.000272955986808901 46.397623802710676 -0.04738699069681015 -4.346790354924858 -14.69982212005311 -3.8613368287835903 0.04399733990640575 0.023026860274513866 -0.024251999265467002 -0.02402757327025244 -10.745258580832267 -0.0026984015270868087 
-0.042003150184486894 -0.004950787779296914 -0.0043166184005057175 0.04797340730327847 -0.023597779649348113 0.006954688116640484 -4.7855965385953345 9.18455156738949 -0.4257554660262885 -0.7840004395041631 2.906391941065827 0.38725246949269754 -0.9425419719874326 0.451765138756095 -0.7824206963395878 -1.0709499358876293 0.17818711666721374 -0.9672919631569964 -0.7232585900095299 6.00959150722501 1.1081526011572012 -0.47812102863103817 -2.0855558732679595 -2.1527816030159004 -0.5702024618830023 -16.62812434946228 -0.041467436768326905 3.615725079545375 -0.11652131366363218 -7.165464209600794 49.00811029955938 4.174863981351386 30.28582925251788 -0.9525532341950314 16.907515855844682 68.1900784620312 29.85298517546309 -0.17435077894484038 -8.592054420327349 4.52895195225586 -0.11024594762495311 -1.6396446038431574 -0.0013199282433271067 0.03295123557328674 -56.284162832438994 0.02678754649547347 -0.001173385232238725 -56.26848455799881 -38.78314155473682 -0.019511011338071992 0.007364976523934351 -0.02751851267075051 -0.009789527517555022 0.03324893713269881 -0.01702747398510763 -0.04024158401625382 0.006521413166266353 -36.74293860246103 -0.036268364955532977 -0.03760013804689247 0.0361556236305368 0.042938948303252344 -0.030859178060695033 -0.025690000685512686 -0.020925974838720815 0.03799615246644915 -19.724127997727635 0.013931538951311407 0.04259853589762042 -0.023444692665841475 0.007531436018137527 0.014978471364439942 -0.03366537768886551 -0.019136145739325344 -0.01435922732071288 24.052215782226547 -0.013435712343323214 0.047278633908267004 28.853534533638797 -0.04477073107401618 0.011687423723734982 28.829125517188558 -0.03035738158622774 -0.014916345652551772 -2.3331327823791477 0.0909812387086189 7.236496115449933 -47.580450292541336 20.353547917254247 -28.75787114093713 -14.582127428819614 11.738370622545734 -79.39034528374302 -27.515331589627582 -9.118994027394665 7.380627995263851 -0.49711183698045486 0.0526814207770723 -8.159512534341806 -0.0009381631828142235 -0.04360233565329834 44.54899856280118 -0.01738549969522433 0.0012196134947236523 44.57572950538283 12.486959187651323 -0.018492478451575714 0.0010041611134378441 -0.028680500930125467 -0.018006760200929433 0.00789378021315851 0.01613000736032143 0.04024821867229006 0.006220983385146136 11.082188740009824 0.040209864379931556 -0.01903233084201633 -0.002421477646557123 -0.012888745965358047 0.00021165476142442552 -0.04749296681424536 -0.029757343788473757 -0.027018150720491775 4.774388566754091 -0.029861790749835138 0.018732419078878976 -0.031118065129074255 0.046274336815465826 0.03781115771266773 -0.03785817752095376 -0.03579783087563381 0.01015356577232386 -5.554916914362412 -0.03863837649275163 0.002081025566711172 -6.68247359192124 -0.010025826869923293 -0.02776860871116559 -6.671842252571335 0.04706074720599278 0.024608021971501002 0.01710035224188398 -0.02264795749049328 -0.018252550373979364 8.094305178676363 3.5097783548964174 -19.25365660454352 0.0017722102559538573 10.382762977667236 -0.00558954162237061 -5.597466076544228 -15.669643456816639 3.199776904616915 -0.028456195291144352 -0.02031622227583067 -0.015418360576514948 0.0007306447522952344 4.658257241956629 0.02942889076537444 12.481163639977053 -8.269873312156825 6.911615613163454 0.019729769712649208 46.35704334362818 -0.03131921582730464 -4.291102790414819 -14.76939973718404 -3.809186527366902 0.036610601602262795 -0.017456974552785057 0.04269346575727329 0.02514201615703174 -10.749325175811798 -0.018363100312125052 
0.0204055505597005 0.04048946066888857 0.0191990295097741 0.0074406506167356 0.0073118876843290635 0.037299545702425586 -4.714648694614158 9.033460572813093 -0.42124000539320916 -0.7989000078988784 2.8822327161851664 0.37419828850466014 -0.9951020501997381 0.4094120623790603 -0.9372460335323908 -1.0204526126941482 0.20622825450523696 -1.0344431554600617 -0.6848483517122974 5.9273906525574045 1.0259425747919877 -0.4943911270586129 -2.054107294482475 -2.3257534358993506 -0.5389791000670897 -16.499417225349188 -0.03664204888228617 3.9714175435447854 -0.1842254650955728 -7.22210483475139 47.8298288701591 4.071268230608458 28.863067001942706 -1.9681955238343805 16.892711940623514 66.62103837783478 30.928646160652853 -0.07807283520558216 -8.756798265628627 4.5723145782286565 -0.09795409162729053 -1.5531532995532384 -0.00985333992763078 0.005861306021570375 -56.24601906144349 -0.023692774510156486 0.036259878461952784 -56.22176140792977 -38.72789031653764 0.013803349592550708 0.03815499765480724 -0.014320547840061629 0.015901334490509893 -0.03319514185777256 0.0015886066677352748 0.03359084087611608 -0.04271567019552183 -36.68127381692574 0.03788841368005305 0.015482708679340306 0.02754224736648183 0.044718419926658246 -0.01277815177123302 -0.013250061392342923 0.039848663169675815 -0.009849546213032299 -19.728461235889934 -0.008551756244867951 -0.011636603403908782 -0.027063762981659245 -0.01247682638175533 -0.029979149587021383 0.0032815219481382237 0.006184013423516355 0.008849860739221053 24.04778580369938 -0.047615857716785386 0.030630386516070994 28.859441723857252 -0.04295639844022235 0.0007232533160155177 28.822558730072608 0.020821127692382046 -0.031694924550953435 -2.490011721400295 0.06806851410456397 7.1814424226651035 -46.33813618986662 21.26243387196383 -29.443755059280427 -10.354523865573412 9.48491090787464 -78.82813015650197 -28.497087339553662 -9.657643399152237 7.936990540130441 -0.4861428956900673 0.029974556143544738 -8.168033156561853 -0.0026292974650794047 0.020852986448857618 44.6011784464596 -0.01921064343575128 -0.0011327806280945025 44.55064464222496 12.467037076597679 0.04162417137706828 0.030412973712597286 -0.005378385428113598 0.030831431784817516 0.00786675169412897 0.0341247898523212 0.02825468630667207 -0.0034162195245455306 11.123795782322462 0.0127053931574182 0.003566692976160513 0.0498182438128777 -0.0029783295472363717 0.011177944079829277 -0.030413772629395576 0.008345643347055641 -0.02443344303863687 4.807756921709914 0.037123126710626494 0.029905256383241957 -0.0052665771800179464 -0.017185245277540354 -0.009132568536460405 -0.02841561743420179 0.01975807072803618 -0.004908254700703862 -5.61762169001828 -0.023831958132812768 -0.030888182761875344 -6.726577410244798 -0.026533207132728245 0.030603901603803562 -6.731368917776002 -0.0035629401346291335 0.019818943111292366 -0.024077529837614048 0.017490016041343637 -0.011355633513599361 8.021289107780083 3.4848026417449316 -19.223474569750504 0.011108418801724747 10.356130783414322 -0.03279109931791356 -5.632298005118269 -15.654599877746758 3.192957814108276 0.033933672605806424 -0.04931300057178141 0.0030147003738147135 -0.00011915524170035439 4.711047223615038 0.04183950190428576 12.49912264083908 -8.254766042739167 6.910456492597404 -0.04597036922721222 46.39381749318936 0.050803263483341646 -4.357504881871791 -14.732384160324312 -3.7865146523460855 0.006860818559369367 -0.024812347278929565 0.022381483049766705 0.019702655374033155 -10.71179956337323 -0.03652289391985757 
